<?xml version="1.0" standalone="no"?>
<!DOCTYPE svg PUBLIC "-//W3C//DTD SVG 20010904//EN"
 "http://www.w3.org/TR/2001/REC-SVG-20010904/DTD/svg10.dtd">
<svg version="1.0" xmlns="http://www.w3.org/2000/svg"
 width="256.000000pt" height="256.000000pt" viewBox="0 0 256.000000 256.000000"
 preserveAspectRatio="xMidYMid meet">
<metadata>
Created by potrace 1.11, written by Peter Selinger 2001-2013
</metadata>
<g transform="translate(0.000000,256.000000) scale(0.100000,-0.100000)"
fill="#000000" stroke="none">
<path d="M1075 2544 c-433 -76 -796 -359 -967 -755 -172 -400 -131 -842 113
-1214 74 -112 243 -279 359 -354 516 -334 1185 -259 1613 182 320 329 436 812
301 1255 -107 353 -374 651 -711 796 -222 95 -488 129 -708 90z m825 -634 l0
-150 -440 0 -440 0 0 -155 0 -155 450 0 450 0 0 -69 0 -69 -236 -293 -237
-294 242 -3 241 -2 0 -85 0 -85 -380 0 -380 0 0 68 0 67 235 294 c129 161 235
295 235 297 0 2 -139 4 -310 4 l-310 0 0 -370 0 -370 -170 0 -170 0 0 760 0
760 610 0 610 0 0 -150z"/>
</g>
</svg>
